<?xml version="1.0" standalone="no"?>
<!DOCTYPE svg PUBLIC "-//W3C//DTD SVG 20010904//EN"
 "http://www.w3.org/TR/2001/REC-SVG-20010904/DTD/svg10.dtd">
<svg version="1.0" xmlns="http://www.w3.org/2000/svg"
 width="5000.000000pt" height="3000.000000pt" viewBox="0 0 5000.000000 3000.000000"
 preserveAspectRatio="xMidYMid meet">

<g transform="translate(0.000000,3000.000000) scale(0.100000,-0.100000)"
fill="#000000" stroke="none">
<path d="M32809 17673 c-17 -46 1 -66 133 -137 113 -61 126 -70 146 -111 32
-66 61 -191 72 -307 13 -150 33 -1123 25 -1218 -7 -74 -5 -85 19 -133 29 -60
66 -88 90 -68 40 34 41 55 38 850 l-4 763 -41 97 c-57 132 -87 159 -257 232
-157 68 -204 75 -221 32z"/>
<path d="M18853 17509 c-18 -19 -16 -53 5 -71 9 -8 40 -23 67 -33 150 -53 231
-134 266 -267 8 -28 14 -233 19 -598 8 -583 12 -636 60 -807 11 -40 20 -77 20
-82 0 -4 -61 -53 -136 -107 -271 -196 -503 -409 -632 -579 -29 -39 -74 -112
-100 -164 -46 -92 -47 -97 -47 -185 0 -133 29 -188 174 -329 92 -90 124 -114
193 -147 165 -79 316 -78 478 1 118 58 192 135 257 265 47 96 48 98 51 208 6
180 -34 306 -128 409 -108 118 -309 172 -298 80 2 -20 21 -39 78 -78 121 -83
186 -196 197 -342 15 -186 -63 -341 -207 -412 -126 -63 -234 -66 -348 -10 -79
38 -237 186 -275 258 -54 99 -44 201 35 355 35 68 62 102 172 212 304 304 710
574 1292 861 138 68 260 133 272 146 11 12 23 34 27 48 20 80 -175 80 -279 0
-74 -57 -139 -96 -352 -214 -105 -58 -221 -123 -257 -146 l-65 -40 -6 37 c-26
176 -31 306 -28 819 3 588 3 599 -52 719 -56 121 -175 188 -356 200 -63 5 -88
3 -97 -7z"/>
<path d="M23496 17504 c-9 -8 -16 -21 -16 -29 0 -15 56 -65 74 -65 23 0 153
-68 187 -98 19 -17 45 -51 58 -77 53 -106 53 -110 61 -715 7 -599 9 -627 61
-804 11 -38 17 -72 12 -76 -4 -4 -51 -38 -103 -75 -183 -130 -305 -231 -448
-370 -164 -159 -256 -274 -311 -390 -53 -109 -63 -157 -50 -236 16 -106 50
-162 167 -274 171 -165 262 -209 432 -209 115 -1 170 13 273 67 105 55 200
168 258 307 33 78 34 272 2 375 -44 140 -141 250 -258 294 -69 26 -106 26
-135 3 -33 -27 -19 -57 45 -93 155 -88 243 -274 216 -462 -25 -182 -120 -292
-295 -342 -77 -22 -168 -15 -243 20 -103 47 -251 185 -300 278 -27 53 -29 152
-3 227 47 142 115 235 283 388 321 294 652 509 1215 791 145 73 275 143 288
156 30 30 32 80 5 95 -48 25 -188 3 -246 -40 -87 -65 -149 -102 -360 -220
-121 -67 -244 -138 -273 -156 -36 -23 -54 -30 -56 -22 -3 7 -10 67 -18 133 -9
86 -13 283 -13 700 0 535 -1 585 -18 640 -38 120 -94 197 -177 240 -91 47
-283 71 -314 39z"/>
<path d="M28185 17474 c-168 -28 -290 -37 -605 -43 -294 -5 -325 -8 -328 -23
-5 -28 45 -45 237 -77 226 -38 337 -40 561 -7 262 38 280 39 320 19 44 -23 83
-93 110 -199 25 -97 26 -251 4 -401 -18 -119 -14 -225 9 -270 38 -72 100 -93
124 -43 22 47 45 359 41 578 l-3 207 -38 72 c-80 148 -157 204 -281 202 -39
-1 -107 -7 -151 -15z"/>
<path d="M17896 16955 c-21 -22 -21 -28 9 -116 15 -41 37 -126 50 -189 14 -63
30 -133 36 -156 13 -51 0 -106 -38 -156 -59 -75 -372 -405 -458 -481 -120
-106 -214 -168 -361 -239 -110 -52 -134 -70 -134 -99 0 -5 12 -14 27 -20 54
-20 250 61 425 177 62 41 150 116 251 214 l154 150 77 -44 c42 -24 118 -65
169 -90 70 -36 117 -69 197 -143 143 -130 209 -173 270 -173 33 0 52 6 63 18
18 19 22 59 9 78 -16 25 -381 289 -443 321 -72 37 -176 62 -254 63 l-50 1 71
67 c40 37 104 102 143 144 61 67 71 82 71 114 0 46 -101 377 -140 459 -45 94
-106 137 -144 100z"/>
<path d="M22548 16959 c-24 -14 -23 -42 7 -128 38 -111 88 -359 82 -408 -5
-50 -7 -53 -173 -234 -172 -189 -372 -382 -459 -444 -38 -28 -133 -81 -210
-120 -109 -55 -141 -75 -143 -92 -5 -33 30 -47 83 -34 65 16 199 75 279 122
112 67 200 137 352 282 l140 135 80 -45 c43 -25 115 -63 159 -85 87 -44 116
-66 245 -183 107 -97 171 -135 228 -135 74 0 105 54 60 104 -45 49 -384 292
-453 323 -70 32 -164 53 -240 53 l-40 0 132 133 c132 134 153 160 153 195 0
39 -111 388 -146 460 -24 50 -46 80 -67 93 -36 21 -45 23 -69 8z"/>
<path d="M31947 16913 c-13 -12 -7 -50 11 -65 9 -8 57 -39 105 -69 162 -99
170 -116 187 -409 6 -96 23 -298 38 -448 24 -230 32 -277 49 -300 26 -34 60
-35 85 -1 40 53 41 102 8 523 -5 72 -10 218 -10 325 0 169 -3 202 -19 237 -25
56 -89 107 -204 165 -91 45 -104 49 -171 49 -40 0 -76 -3 -79 -7z"/>
<path d="M27457 16634 c-23 -24 -2 -60 92 -159 131 -137 146 -169 146 -305 0
-135 -17 -181 -89 -248 -91 -82 -261 -152 -466 -191 -58 -11 -343 -65 -635
-121 -291 -55 -547 -104 -567 -110 -28 -8 -40 -18 -44 -36 -10 -39 20 -62 106
-80 86 -18 79 -19 350 46 113 27 318 72 455 100 364 74 1544 268 1804 296 58
6 63 5 59 -12 -2 -11 -44 -45 -98 -80 -376 -245 -766 -532 -904 -664 -137
-132 -216 -255 -231 -361 -13 -90 39 -229 145 -387 104 -155 209 -256 330
-317 214 -109 457 -56 675 147 114 105 144 202 145 459 0 201 -17 259 -104
344 -77 75 -195 137 -276 143 -65 5 -83 -9 -78 -60 3 -30 11 -37 101 -88 126
-71 150 -95 170 -167 24 -86 40 -218 34 -284 -14 -155 -132 -283 -329 -359
-116 -45 -174 -45 -263 -1 -176 87 -387 386 -389 551 -2 163 174 321 889 800
232 155 264 173 449 254 225 98 309 123 443 132 61 5 100 12 109 21 41 42 -15
136 -90 153 -39 9 -243 -8 -365 -30 -230 -41 -1270 -185 -1278 -177 -2 3 14
33 36 67 78 120 94 312 37 433 -34 71 -119 157 -228 230 -82 56 -127 75 -141
61z"/>
<path d="M30946 16404 c-36 -35 -9 -82 67 -120 91 -46 218 -133 272 -188 99
-99 138 -214 155 -459 20 -291 33 -340 109 -416 45 -45 87 -59 109 -37 14 13
13 33 -7 183 -88 659 -104 717 -226 832 -66 61 -208 151 -310 196 -65 29 -145
33 -169 9z"/>
<path d="M31965 16200 c-83 -22 -341 -119 -349 -132 -5 -9 -6 -23 -3 -32 8
-20 97 -21 204 -2 110 19 108 25 50 -165 -47 -153 -72 -284 -63 -332 9 -48 54
-100 112 -127 43 -21 54 -22 322 -18 245 3 281 5 305 21 79 52 14 144 -104
146 -19 1 -56 -6 -82 -15 -37 -12 -81 -15 -220 -12 -192 3 -207 8 -207 63 0
43 93 360 130 445 61 139 29 193 -95 160z"/>
<path d="M34275 16159 c-22 -12 -52 -30 -67 -40 -15 -11 -89 -53 -166 -93
-418 -222 -830 -496 -1202 -799 -472 -385 -608 -524 -671 -685 -32 -80 -32
-214 0 -292 63 -153 214 -326 339 -387 66 -33 85 -38 166 -41 202 -9 401 90
492 244 39 66 57 187 51 339 -5 152 -20 203 -79 270 -47 54 -318 235 -351 235
-32 0 -47 -18 -47 -56 0 -44 25 -72 130 -143 125 -86 157 -132 184 -263 40
-195 6 -295 -131 -384 -130 -84 -203 -104 -279 -78 -161 54 -357 283 -372 432
-7 81 51 190 169 317 75 79 535 482 667 583 117 90 311 219 447 297 132 76
481 249 729 360 156 71 200 95 207 114 14 36 -11 66 -65 80 -66 16 -106 14
-151 -10z"/>
</g>
</svg>
