<?xml version="1.0" standalone="no"?>
<!DOCTYPE svg PUBLIC "-//W3C//DTD SVG 20010904//EN"
 "http://www.w3.org/TR/2001/REC-SVG-20010904/DTD/svg10.dtd">
<svg version="1.0" xmlns="http://www.w3.org/2000/svg"
 width="5000.000000pt" height="3000.000000pt" viewBox="0 0 5000.000000 3000.000000"
 preserveAspectRatio="xMidYMid meet">

<g transform="translate(0.000000,3000.000000) scale(0.100000,-0.100000)"
fill="#000000" stroke="none">
<path d="M18035 17096 c-165 -40 -285 -164 -315 -325 -6 -34 -10 -422 -10
-1042 l0 -989 445 0 445 0 0 390 0 390 103 0 c166 0 262 40 326 137 45 67 64
142 65 248 0 193 -82 327 -227 370 -31 9 -92 15 -159 15 l-108 0 0 215 c0 231
-8 290 -49 374 -83 173 -308 268 -516 217z"/>
<path d="M22575 17100 c-172 -36 -288 -142 -331 -305 -11 -40 -14 -248 -14
-1052 l0 -1003 445 0 445 0 0 390 0 390 99 0 c141 0 217 25 286 94 68 67 96
140 103 260 10 191 -57 326 -193 388 -41 18 -72 23 -172 26 l-123 4 0 192 c0
105 -5 220 -11 256 -13 83 -56 177 -108 233 -96 104 -275 158 -426 127z"/>
<path d="M31585 17096 c-165 -40 -285 -164 -315 -325 -6 -34 -10 -427 -10
-1057 l0 -1004 445 0 445 0 0 415 0 415 108 0 c67 0 128 6 159 15 145 43 227
177 227 370 -1 106 -20 181 -65 248 -64 96 -162 137 -331 137 l-98 0 0 205 c0
220 -8 280 -49 364 -83 173 -308 268 -516 217z"/>
<path d="M15842 17044 c-134 -36 -234 -125 -277 -249 -13 -36 -20 -101 -25
-235 -10 -221 -29 -348 -77 -493 -97 -294 -274 -470 -578 -573 -100 -34 -115
-43 -166 -93 -72 -72 -99 -139 -99 -250 0 -178 79 -298 240 -363 83 -34 267
-32 405 4 353 93 646 314 860 646 66 103 56 100 163 52 169 -78 261 -261 265
-527 l2 -123 434 0 434 0 -6 173 c-6 182 -22 292 -63 435 -93 319 -310 564
-608 682 -87 34 -264 80 -310 80 -28 0 -29 0 -23 48 19 154 28 385 17 454 -26
169 -119 279 -278 328 -77 24 -229 26 -310 4z"/>
<path d="M20360 17044 c-119 -32 -230 -127 -271 -232 -18 -47 -23 -89 -30
-242 -10 -207 -36 -382 -74 -498 -100 -298 -285 -483 -583 -581 -138 -45 -188
-87 -239 -198 -52 -112 -31 -283 46 -380 127 -162 359 -194 662 -92 213 71
405 194 570 365 82 86 182 215 226 295 32 57 36 58 140 9 171 -79 263 -266
263 -536 l0 -114 437 0 436 0 -6 158 c-13 321 -77 554 -207 751 -105 160 -272
298 -450 372 -83 35 -285 89 -332 89 -27 0 -29 2 -24 28 28 132 35 444 12 530
-36 135 -136 232 -285 276 -68 20 -216 20 -291 0z"/>
<path d="M24135 17039 c-120 -16 -201 -61 -261 -145 -42 -59 -58 -130 -52
-235 9 -175 102 -281 276 -318 37 -8 422 -11 1303 -11 1380 0 1303 4 1330 -61
27 -68 -9 -434 -61 -614 -11 -38 -20 -73 -20 -77 0 -5 198 -8 439 -8 l439 0
21 78 c25 95 57 283 71 421 13 133 13 542 0 611 -41 215 -193 331 -470 360
-122 12 -2922 12 -3015 -1z"/>
<path d="M28568 16991 c-73 -24 -116 -51 -167 -106 -50 -54 -76 -112 -91 -198
-8 -42 -10 -282 -7 -747 3 -590 6 -694 20 -753 48 -199 147 -297 347 -343 68
-16 177 -18 1108 -21 l1032 -4 -2 953 -3 953 -24 60 c-33 82 -115 164 -196
195 -82 32 -265 40 -351 15 -157 -44 -247 -164 -262 -350 l-7 -80 -407 -3
c-328 -2 -408 0 -408 11 0 7 -5 51 -11 97 -21 174 -103 281 -249 324 -75 22
-247 21 -322 -3z m1402 -1276 l0 -235 -384 0 c-373 0 -384 1 -410 21 l-26 20
0 215 0 214 410 0 410 0 0 -235z"/>
<path d="M25350 16040 c-157 -25 -262 -100 -317 -225 -13 -32 -18 -80 -23
-230 l-5 -190 -550 -5 c-618 -6 -601 -4 -690 -82 -165 -145 -142 -457 41 -564
96 -56 -2 -54 1959 -54 1521 0 1818 2 1863 14 160 43 245 159 245 336 1 120
-21 180 -93 251 -47 47 -68 61 -124 78 -67 21 -84 21 -896 21 l-827 0 -5 178
c-6 194 -17 242 -70 320 -38 55 -116 107 -198 133 -75 23 -227 32 -310 19z"/>
<path d="M15713 14620 c-135 -11 -275 -50 -386 -107 -75 -38 -109 -64 -187
-143 -109 -108 -161 -195 -206 -345 -36 -121 -45 -344 -19 -480 67 -358 297
-583 680 -667 48 -10 297 -13 1200 -13 l1140 0 100 28 c261 71 435 207 541
422 72 147 87 220 88 425 0 152 -2 186 -22 259 -88 322 -307 526 -647 602
-100 22 -103 22 -1140 25 -572 1 -1086 -2 -1142 -6z m1907 -646 c61 -28 106
-82 126 -151 30 -104 -1 -225 -72 -279 -71 -54 -49 -53 -894 -53 -769 -1 -786
0 -830 20 -88 40 -130 104 -138 210 -7 101 32 194 99 233 77 45 73 45 889 43
762 -2 776 -2 820 -23z"/>
<path d="M20240 14620 c-317 -26 -568 -168 -704 -399 -142 -243 -163 -579 -52
-853 103 -256 328 -428 636 -490 95 -19 2265 -19 2360 0 362 73 599 291 682
629 26 107 31 320 9 428 -35 177 -120 338 -237 450 -108 104 -254 177 -429
216 -100 22 -105 22 -1135 25 -569 1 -1078 -2 -1130 -6z m1869 -636 c29 -8 69
-30 91 -50 114 -103 95 -330 -34 -409 l-49 -30 -807 -3 -807 -2 -54 28 c-152
79 -168 331 -27 435 60 44 82 46 879 46 656 1 762 -1 808 -15z"/>
<path d="M29164 14556 c-113 -18 -215 -51 -309 -99 -118 -61 -256 -200 -313
-317 -64 -132 -83 -212 -89 -380 -3 -88 -1 -174 6 -219 59 -377 322 -618 732
-671 43 -5 519 -9 1144 -10 1145 0 1170 1 1330 51 216 66 373 196 466 384 68
138 83 213 83 415 0 149 -3 187 -22 255 -83 304 -296 503 -622 581 -69 17
-158 18 -1200 20 -871 2 -1143 -1 -1206 -10z m1996 -642 c116 -34 176 -150
140 -273 -17 -59 -52 -100 -110 -129 l-55 -27 -800 0 c-854 0 -827 -1 -899 48
-40 28 -76 110 -76 175 0 109 60 187 165 213 17 4 379 7 806 8 685 1 782 -1
829 -15z"/>
<path d="M24470 14455 c-351 -55 -579 -244 -662 -550 -31 -115 -31 -374 1
-489 37 -137 84 -220 181 -317 71 -71 101 -93 180 -132 104 -50 208 -80 340
-96 55 -7 496 -11 1255 -11 759 0 1200 4 1255 11 130 16 236 46 340 96 79 38
108 59 180 132 96 97 144 180 182 317 31 115 31 373 -1 489 -85 312 -309 496
-668 550 -137 21 -2451 20 -2583 0z m2300 -670 c48 -28 72 -78 67 -138 -5 -58
-30 -95 -83 -122 -38 -20 -62 -20 -959 -23 -639 -2 -936 1 -972 8 -29 7 -67
23 -83 36 -54 46 -63 156 -17 210 48 55 22 54 1057 51 940 -2 956 -2 990 -22z"/>
</g>
</svg>
