<?xml version="1.0" standalone="no"?>
<!DOCTYPE svg PUBLIC "-//W3C//DTD SVG 20010904//EN"
 "http://www.w3.org/TR/2001/REC-SVG-20010904/DTD/svg10.dtd">
<svg version="1.0" xmlns="http://www.w3.org/2000/svg"
 width="5000.000000pt" height="3000.000000pt" viewBox="0 0 5000.000000 3000.000000"
 preserveAspectRatio="xMidYMid meet">

<g transform="translate(0.000000,3000.000000) scale(0.100000,-0.100000)"
fill="#000000" stroke="none">
<path d="M19560 18301 c-70 -22 -95 -36 -147 -78 -56 -45 -101 -111 -127 -187
-21 -60 -21 -76 -24 -1073 l-3 -1013 446 0 445 0 0 390 0 390 88 0 c168 1 273
40 337 128 89 124 100 339 22 485 -59 112 -145 155 -328 164 l-118 6 -3 246
c-3 230 -5 250 -27 304 -44 110 -161 210 -285 243 -72 19 -209 17 -276 -5z"/>
<path d="M24089 18306 c-155 -45 -269 -169 -299 -326 -6 -33 -10 -419 -10
-1041 l0 -989 445 0 445 0 0 389 0 388 118 6 c142 7 195 24 261 83 62 56 97
127 112 226 23 155 -20 299 -112 382 -64 57 -120 75 -266 83 l-111 6 -4 241
c-3 222 -6 246 -26 297 -44 111 -130 197 -239 240 -72 28 -242 36 -314 15z"/>
<path d="M33110 18301 c-70 -22 -95 -36 -147 -78 -56 -45 -101 -111 -127 -187
-21 -60 -21 -75 -24 -1088 l-3 -1028 446 0 445 0 0 414 0 414 123 5 c140 5
195 21 256 73 85 73 127 194 118 344 -6 110 -36 189 -94 252 -72 76 -115 92
-268 98 l-130 5 -5 240 c-5 220 -7 245 -29 298 -43 110 -161 210 -285 243 -72
19 -209 17 -276 -5z"/>
<path d="M17440 18269 c-130 -22 -247 -106 -302 -216 -30 -61 -32 -71 -40
-236 -15 -317 -49 -488 -132 -662 -114 -240 -264 -359 -591 -471 -35 -12 -67
-34 -107 -74 -48 -49 -60 -69 -79 -130 -35 -116 -18 -244 44 -336 92 -138 265
-195 478 -159 389 65 731 298 960 656 73 112 66 110 177 59 113 -52 195 -162
237 -315 9 -33 19 -120 22 -192 l6 -133 433 0 434 0 0 59 c0 105 -20 314 -40
412 -59 290 -182 505 -378 660 -136 109 -293 178 -494 219 -56 12 -104 23
-106 24 -1 2 2 32 8 67 18 110 24 379 11 450 -47 236 -264 363 -541 318z"/>
<path d="M21945 18265 c-155 -33 -277 -138 -315 -270 -6 -22 -15 -123 -20
-225 -12 -287 -48 -457 -132 -625 -106 -215 -282 -361 -531 -441 -117 -38
-172 -80 -217 -168 -28 -56 -35 -82 -39 -144 -7 -138 25 -227 108 -305 121
-113 279 -140 507 -87 355 83 658 302 877 633 66 99 74 107 97 102 58 -14 134
-57 184 -105 102 -97 153 -235 163 -447 l6 -123 430 0 430 0 -6 173 c-7 231
-41 400 -112 568 -138 321 -411 533 -787 610 -57 11 -104 22 -106 24 -2 2 1
41 6 87 6 46 14 142 17 213 11 225 -19 331 -125 428 -108 100 -271 138 -435
102z"/>
<path d="M25644 18245 c-117 -25 -196 -86 -243 -185 -22 -47 -26 -69 -26 -150
0 -130 21 -187 95 -261 45 -46 70 -62 126 -81 l69 -23 1288 -5 1289 -5 25 -30
26 -29 -6 -171 c-6 -196 -27 -320 -83 -507 -5 -17 20 -18 435 -18 l440 0 16
53 c25 82 53 231 71 372 21 165 25 623 6 703 -19 83 -61 158 -117 211 -62 59
-111 85 -213 114 l-77 22 -1530 2 c-1248 1 -1541 -1 -1591 -12z"/>
<path d="M30164 18216 c-128 -29 -220 -101 -271 -211 l-28 -60 -3 -714 c-2
-610 0 -727 13 -804 35 -204 125 -306 321 -364 54 -16 141 -18 1117 -21 l1057
-3 0 893 c0 522 -4 921 -10 960 -20 136 -95 244 -204 294 -153 70 -390 50
-499 -42 -77 -65 -121 -161 -133 -289 l-7 -75 -407 0 -407 0 -6 78 c-14 177
-93 294 -233 343 -76 27 -217 34 -300 15z m1356 -1286 l0 -240 -369 0 c-231 0
-379 4 -398 10 -48 17 -53 41 -53 265 l0 205 410 0 410 0 0 -240z"/>
<path d="M26864 17245 c-81 -18 -150 -54 -201 -106 -81 -81 -103 -164 -103
-386 l0 -143 -497 0 c-509 0 -591 -5 -669 -39 -61 -27 -120 -85 -151 -149 -25
-52 -28 -67 -28 -167 0 -100 2 -115 28 -167 34 -70 100 -130 176 -160 l56 -23
1807 -3 c1981 -3 1899 -5 1998 56 103 63 157 186 147 330 -12 176 -110 283
-287 311 -42 7 -352 11 -862 11 l-796 0 -4 183 c-6 225 -15 255 -102 343 -64
64 -127 95 -230 115 -68 13 -209 10 -282 -6z"/>
<path d="M17220 15829 c-232 -29 -404 -111 -545 -261 -86 -91 -137 -176 -174
-293 -68 -210 -68 -435 0 -640 43 -128 98 -216 199 -316 73 -73 102 -94 191
-138 117 -58 212 -85 353 -100 124 -14 2054 -15 2184 -1 332 35 576 190 702
445 103 209 124 483 55 721 -96 329 -356 537 -730 583 -106 13 -2132 13 -2235
0z m1965 -646 c84 -45 124 -119 125 -228 0 -130 -67 -220 -183 -245 -37 -8
-280 -10 -822 -8 l-770 3 -41 22 c-151 81 -179 294 -54 414 28 28 63 51 86 57
26 7 308 10 829 9 788 -2 790 -2 830 -24z"/>
<path d="M21735 15829 c-248 -29 -465 -145 -593 -315 -65 -86 -103 -164 -138
-279 -26 -85 -28 -101 -28 -280 0 -179 2 -195 28 -280 83 -273 254 -452 514
-541 176 -60 147 -59 1342 -59 1016 0 1101 1 1184 18 350 71 578 277 668 602
19 69 22 105 22 260 0 211 -15 281 -88 430 -127 256 -357 405 -686 445 -102
12 -2120 12 -2225 -1z m1940 -635 c188 -65 210 -358 34 -458 l-54 -31 -800 0
c-769 0 -802 1 -839 19 -57 29 -104 82 -121 139 -31 105 -10 212 55 277 71 71
37 68 901 69 694 1 780 -1 824 -15z"/>
<path d="M30694 15766 c-285 -53 -489 -196 -599 -420 -57 -116 -84 -222 -92
-361 -25 -467 209 -786 652 -888 87 -20 121 -21 1150 -25 1109 -3 1214 0 1370
39 163 42 319 135 413 247 130 156 186 333 185 577 -2 263 -86 475 -247 622
-104 94 -207 149 -374 196 l-77 22 -1155 2 c-909 1 -1170 -1 -1226 -11z m2017
-636 c96 -27 149 -100 149 -205 0 -86 -36 -156 -98 -193 l-47 -27 -810 -3
c-876 -3 -851 -4 -920 50 -88 69 -95 245 -13 325 66 64 34 62 908 62 504 1
808 -3 831 -9z"/>
<path d="M26130 15679 c-470 -34 -750 -284 -790 -705 -19 -205 26 -424 114
-556 96 -145 258 -254 451 -303 172 -44 257 -46 1500 -42 1165 3 1170 3 1267
25 135 31 228 67 312 122 140 92 239 228 288 395 20 70 23 102 23 260 0 158
-3 190 -23 260 -68 235 -238 411 -470 488 -187 62 -138 60 -1402 62 -635 2
-1207 -1 -1270 -6z m2182 -676 c56 -26 78 -63 78 -130 0 -65 -28 -109 -88
-136 l-47 -22 -925 0 c-1007 0 -992 -1 -1046 56 -22 23 -29 41 -32 87 -7 100
33 146 143 162 27 4 460 7 960 6 l910 -1 47 -22z"/>
</g>
</svg>
