<?xml version="1.0" standalone="no"?>
<!DOCTYPE svg PUBLIC "-//W3C//DTD SVG 20010904//EN"
 "http://www.w3.org/TR/2001/REC-SVG-20010904/DTD/svg10.dtd">
<svg version="1.0" xmlns="http://www.w3.org/2000/svg"
 width="5000.000000pt" height="3000.000000pt" viewBox="0 0 5000.000000 3000.000000"
 preserveAspectRatio="xMidYMid meet">

<g transform="translate(0.000000,3000.000000) scale(0.100000,-0.100000)"
fill="#000000" stroke="none">
<path d="M23888 17101 c-122 -40 -213 -124 -260 -238 l-23 -58 -3 -1027 -2
-1028 440 0 440 0 0 394 0 394 133 4 c119 3 137 6 182 30 68 35 127 102 155
174 20 48 24 79 24 169 1 123 -9 165 -56 245 -35 59 -102 111 -166 130 -20 7
-90 14 -154 17 l-117 6 -3 246 c-3 230 -5 250 -27 304 -34 86 -121 175 -213
218 -67 31 -82 34 -183 36 -86 2 -122 -1 -167 -16z"/>
<path d="M21754 17065 c-104 -22 -201 -83 -252 -158 -53 -76 -69 -144 -75
-324 -15 -409 -95 -652 -277 -846 -97 -105 -242 -191 -388 -233 -75 -22 -105
-38 -154 -82 -141 -127 -139 -393 4 -528 109 -102 233 -136 406 -110 394 60
732 284 975 648 54 80 77 108 93 108 44 0 162 -70 213 -125 94 -104 130 -212
138 -417 l6 -138 433 0 434 0 0 78 c0 112 -18 293 -40 399 -100 486 -403 785
-888 878 l-94 18 6 29 c16 78 28 274 24 387 -3 116 -6 131 -35 193 -87 185
-297 274 -529 223z"/>
<path d="M21537 14629 c-222 -33 -378 -108 -517 -248 -73 -73 -94 -102 -138
-191 -89 -180 -119 -384 -89 -585 55 -356 270 -598 616 -694 l96 -26 1160 0
1160 0 89 23 c179 45 341 143 448 270 200 236 252 636 124 954 -96 237 -290
398 -571 475 l-100 28 -1110 1 c-610 1 -1136 -2 -1168 -7z m1999 -654 c120
-75 145 -280 47 -394 -67 -79 -28 -76 -913 -76 -863 0 -830 -2 -901 62 -77 69
-98 216 -47 318 31 60 49 77 108 104 44 20 58 21 851 18 l806 -2 49 -30z"/>
</g>
</svg>
