<?xml version="1.0" standalone="no"?>
<!DOCTYPE svg PUBLIC "-//W3C//DTD SVG 20010904//EN"
 "http://www.w3.org/TR/2001/REC-SVG-20010904/DTD/svg10.dtd">
<svg version="1.0" xmlns="http://www.w3.org/2000/svg"
 width="5000.000000pt" height="3000.000000pt" viewBox="0 0 5000.000000 3000.000000"
 preserveAspectRatio="xMidYMid meet">

<g transform="translate(0.000000,3000.000000) scale(0.100000,-0.100000)"
fill="#000000" stroke="none">
<path d="M18226 14980 c-155 -25 -303 -84 -381 -152 -160 -141 -81 -381 125
-381 42 0 74 8 138 37 190 86 374 85 464 -1 26 -25 38 -52 52 -114 l6 -27
-233 -5 c-194 -4 -245 -8 -310 -26 -215 -57 -342 -176 -388 -361 -19 -77 -17
-241 5 -315 51 -172 157 -283 328 -342 99 -34 281 -43 390 -19 87 19 175 59
240 109 l47 36 11 -55 11 -54 210 0 210 0 -3 583 c-4 572 -4 583 -27 657 -33
111 -78 187 -151 260 -77 77 -133 109 -255 146 -79 23 -110 27 -260 30 -93 1
-197 -1 -229 -6z m404 -1082 c0 -116 -46 -184 -142 -213 -100 -29 -219 -11
-251 38 -20 32 -27 78 -17 122 19 83 72 104 268 105 l142 0 0 -52z"/>
</g>
</svg>
